{
    "asset" : {
        "generator" : "Khronos glTF Blender I/O v1.3.48",
        "version" : "2.0"
    },
    "scene" : 0,
    "scenes" : [
        {
            "name" : "Scene",
            "nodes" : [
                0,
                1,
                14
            ]
        }
    ],
    "nodes" : [
        {
            "name" : "Light",
            "rotation" : [
                0.16907575726509094,
                0.7558803558349609,
                -0.27217137813568115,
                0.570947527885437
            ],
            "translation" : [
                4.076245307922363,
                5.903861999511719,
                -1.0054539442062378
            ]
        },
        {
            "name" : "Camera",
            "rotation" : [
                0.483536034822464,
                0.33687159419059753,
                -0.20870360732078552,
                0.7804827094078064
            ],
            "translation" : [
                7.358891487121582,
                4.958309173583984,
                6.925790786743164
            ]
        },
        {
            "mesh" : 0,
            "name" : "Sphere001",
            "translation" : [
                -2.4719066619873047,
                1.4649276733398438,
                38.90830612182617
            ]
        },
        {
            "mesh" : 1,
            "name" : "Sphere002",
            "rotation" : [
                0,
                0,
                1,
                -4.3711395392165286e-08
            ],
            "scale" : [
                -1,
                -1,
                -1
            ],
            "translation" : [
                -2.471900701522827,
                1.4649335145950317,
                -38.90829086303711
            ]
        },
        {
            "children" : [
                2,
                3
            ],
            "name" : "Group001",
            "translation" : [
                -71.6918716430664,
                -0.1981048583984375,
                0
            ]
        },
        {
            "mesh" : 2,
            "name" : "Line001",
            "rotation" : [
                0.5,
                -0.5,
                0.5000000596046448,
                0.49999991059303284
            ],
            "scale" : [
                0.12241332232952118,
                0.11113396286964417,
                0.12241332232952118
            ],
            "translation" : [
                4.698081970214844,
                0.8767280578613281,
                38.158329010009766
            ]
        },
        {
            "children" : [
                5
            ],
            "name" : "Group002",
            "translation" : [
                -70.00366973876953,
                0,
                0
            ]
        },
        {
            "mesh" : 3,
            "name" : "hinges",
            "rotation" : [
                0.001750972238369286,
                -0.036453187465667725,
                -0.04794619604945183,
                0.9981830716133118
            ],
            "translation" : [
                80.0643081665039,
                -44.38576126098633,
                -15.113763809204102
            ]
        },
        {
            "mesh" : 4,
            "name" : "hinges001",
            "rotation" : [
                0.03645337373018265,
                0.0017509122844785452,
                0.998183012008667,
                0.04794585332274437
            ],
            "scale" : [
                -1,
                -1.0000001192092896,
                -1.0000001192092896
            ],
            "translation" : [
                80.06431579589844,
                -44.3857421875,
                15.113729476928711
            ]
        },
        {
            "children" : [
                7,
                8
            ],
            "name" : "Group003",
            "translation" : [
                -63.29658126831055,
                16.429899215698242,
                0
            ]
        },
        {
            "mesh" : 5,
            "name" : "Line002",
            "rotation" : [
                0.7063219547271729,
                0.033309295773506165,
                -0.033309318125247955,
                0.706321656703949
            ],
            "translation" : [
                25.127532958984375,
                5.314301490783691,
                61.27268981933594
            ]
        },
        {
            "mesh" : 6,
            "name" : "Line003",
            "rotation" : [
                -0.033308930695056915,
                0.7063219547271729,
                0.7063217163085938,
                0.03330894187092781
            ],
            "scale" : [
                -0.9999998807907104,
                -0.9999998807907104,
                -1
            ],
            "translation" : [
                25.127519607543945,
                5.314299583435059,
                -61.27268981933594
            ]
        },
        {
            "children" : [
                10,
                11
            ],
            "name" : "Group004",
            "translation" : [
                4.34954833984375,
                -2.7313461303710938,
                7.62939453125e-06
            ]
        },
        {
            "mesh" : 7,
            "name" : "Object009",
            "rotation" : [
                -0.7071067094802856,
                0,
                -0.7071068286895752,
                2.2197245641564223e-07
            ],
            "scale" : [
                1,
                1,
                0.0016412350814789534
            ],
            "translation" : [
                -74.73171997070312,
                1.2668266296386719,
                38.908302307128906
            ]
        },
        {
            "children" : [
                4,
                6,
                9,
                12,
                13
            ],
            "name" : "074"
        }
    ],
    "materials" : [
        {
            "doubleSided" : true,
            "emissiveFactor" : [
                0,
                0,
                0
            ],
            "name" : "10 - Default",
            "pbrMetallicRoughness" : {
                "baseColorFactor" : [
                    0.5882353186607361,
                    0.5882353186607361,
                    0.5882353186607361,
                    0
                ],
                "metallicFactor" : 1,
                "roughnessFactor" : 0
            }
        },
        {
            "doubleSided" : true,
            "emissiveFactor" : [
                0,
                0,
                0
            ],
            "name" : "08 - Default",
            "pbrMetallicRoughness" : {
                "baseColorFactor" : [
                    0.019607843831181526,
                    0.011764707043766975,
                    0.003921568859368563,
                    1
                ],
                "metallicFactor" : 1,
                "roughnessFactor" : 0.858578622341156
            }
        },
        {
            "doubleSided" : true,
            "emissiveFactor" : [
                0,
                0,
                0
            ],
            "name" : "09 - Default",
            "pbrMetallicRoughness" : {
                "baseColorFactor" : [
                    0.5882353186607361,
                    0.5882353186607361,
                    0.5882353186607361,
                    1
                ],
                "metallicFactor" : 1,
                "roughnessFactor" : 0
            }
        }
    ],
    "meshes" : [
        {
            "name" : "Mesh.002",
            "primitives" : [
                {
                    "attributes" : {
                        "POSITION" : 0,
                        "NORMAL" : 1,
                        "TEXCOORD_0" : 2
                    },
                    "indices" : 3,
                    "material" : 0
                }
            ]
        },
        {
            "name" : "Mesh.001",
            "primitives" : [
                {
                    "attributes" : {
                        "POSITION" : 4,
                        "NORMAL" : 5,
                        "TEXCOORD_0" : 6
                    },
                    "indices" : 3,
                    "material" : 0
                }
            ]
        },
        {
            "name" : "Mesh.003",
            "primitives" : [
                {
                    "attributes" : {
                        "POSITION" : 7,
                        "NORMAL" : 8
                    },
                    "indices" : 9,
                    "material" : 1
                }
            ]
        },
        {
            "name" : "Mesh.005",
            "primitives" : [
                {
                    "attributes" : {
                        "POSITION" : 10,
                        "NORMAL" : 11,
                        "TEXCOORD_0" : 12
                    },
                    "indices" : 13,
                    "material" : 2
                }
            ]
        },
        {
            "name" : "Mesh.004",
            "primitives" : [
                {
                    "attributes" : {
                        "POSITION" : 14,
                        "NORMAL" : 15,
                        "TEXCOORD_0" : 16
                    },
                    "indices" : 13,
                    "material" : 2
                }
            ]
        },
        {
            "name" : "Mesh.006",
            "primitives" : [
                {
                    "attributes" : {
                        "POSITION" : 17,
                        "NORMAL" : 18
                    },
                    "indices" : 19,
                    "material" : 1
                }
            ]
        },
        {
            "name" : "Mesh.007",
            "primitives" : [
                {
                    "attributes" : {
                        "POSITION" : 20,
                        "NORMAL" : 21
                    },
                    "indices" : 19,
                    "material" : 1
                }
            ]
        },
        {
            "name" : "Mesh",
            "primitives" : [
                {
                    "attributes" : {
                        "POSITION" : 22,
                        "NORMAL" : 23,
                        "TEXCOORD_0" : 24
                    },
                    "indices" : 25
                }
            ]
        }
    ],
    "accessors" : [
        {
            "bufferView" : 0,
            "componentType" : 5126,
            "count" : 2341,
            "max" : [
                5.398444175720215,
                22.33547592163086,
                26.11153793334961
            ],
            "min" : [
                -0.4546302855014801,
                -25.265331268310547,
                -28.903047561645508
            ],
            "type" : "VEC3"
        },
        {
            "bufferView" : 1,
            "componentType" : 5126,
            "count" : 2341,
            "type" : "VEC3"
        },
        {
            "bufferView" : 2,
            "componentType" : 5126,
            "count" : 2341,
            "type" : "VEC2"
        },
        {
            "bufferView" : 3,
            "componentType" : 5123,
            "count" : 13620,
            "type" : "SCALAR"
        },
        {
            "bufferView" : 4,
            "componentType" : 5126,
            "count" : 2341,
            "max" : [
                5.398444175720215,
                22.33547592163086,
                26.11153793334961
            ],
            "min" : [
                -0.4546302855014801,
                -25.265331268310547,
                -28.903047561645508
            ],
            "type" : "VEC3"
        },
        {
            "bufferView" : 5,
            "componentType" : 5126,
            "count" : 2341,
            "type" : "VEC3"
        },
        {
            "bufferView" : 6,
            "componentType" : 5126,
            "count" : 2341,
            "type" : "VEC2"
        },
        {
            "bufferView" : 7,
            "componentType" : 5126,
            "count" : 14814,
            "max" : [
                289.48846435546875,
                83.82630920410156,
                216.6959228515625
            ],
            "min" : [
                -912.922607421875,
                0.7218360900878906,
                -202.3718719482422
            ],
            "type" : "VEC3"
        },
        {
            "bufferView" : 8,
            "componentType" : 5126,
            "count" : 14814,
            "type" : "VEC3"
        },
        {
            "bufferView" : 9,
            "componentType" : 5123,
            "count" : 88896,
            "type" : "SCALAR"
        },
        {
            "bufferView" : 10,
            "componentType" : 5126,
            "count" : 4102,
            "max" : [
                -73.59760284423828,
                38.86908721923828,
                91.23365020751953
            ],
            "min" : [
                -81.86943817138672,
                35.32444763183594,
                85.91386413574219
            ],
            "type" : "VEC3"
        },
        {
            "bufferView" : 11,
            "componentType" : 5126,
            "count" : 4102,
            "type" : "VEC3"
        },
        {
            "bufferView" : 12,
            "componentType" : 5126,
            "count" : 4102,
            "type" : "VEC2"
        },
        {
            "bufferView" : 13,
            "componentType" : 5123,
            "count" : 6744,
            "type" : "SCALAR"
        },
        {
            "bufferView" : 14,
            "componentType" : 5126,
            "count" : 4102,
            "max" : [
                -73.59760284423828,
                38.86908721923828,
                91.23365020751953
            ],
            "min" : [
                -81.86943817138672,
                35.32444763183594,
                85.91386413574219
            ],
            "type" : "VEC3"
        },
        {
            "bufferView" : 15,
            "componentType" : 5126,
            "count" : 4102,
            "type" : "VEC3"
        },
        {
            "bufferView" : 16,
            "componentType" : 5126,
            "count" : 4102,
            "type" : "VEC2"
        },
        {
            "bufferView" : 17,
            "componentType" : 5126,
            "count" : 4210,
            "max" : [
                46.02946090698242,
                4.996009826660156,
                27.144081115722656
            ],
            "min" : [
                -95.86543273925781,
                -7.495264053344727,
                -16.515457153320312
            ],
            "type" : "VEC3"
        },
        {
            "bufferView" : 18,
            "componentType" : 5126,
            "count" : 4210,
            "type" : "VEC3"
        },
        {
            "bufferView" : 19,
            "componentType" : 5123,
            "count" : 25248,
            "type" : "SCALAR"
        },
        {
            "bufferView" : 20,
            "componentType" : 5126,
            "count" : 4210,
            "max" : [
                46.02946090698242,
                4.996009826660156,
                27.144081115722656
            ],
            "min" : [
                -95.86543273925781,
                -7.495264053344727,
                -16.515457153320312
            ],
            "type" : "VEC3"
        },
        {
            "bufferView" : 21,
            "componentType" : 5126,
            "count" : 4210,
            "type" : "VEC3"
        },
        {
            "bufferView" : 22,
            "componentType" : 5126,
            "count" : 34,
            "max" : [
                4.768190383911133,
                25.32056427001953,
                2308.884033203125
            ],
            "min" : [
                -5.364805221557617,
                24.77932357788086,
                2039.0565185546875
            ],
            "type" : "VEC3"
        },
        {
            "bufferView" : 23,
            "componentType" : 5126,
            "count" : 34,
            "type" : "VEC3"
        },
        {
            "bufferView" : 24,
            "componentType" : 5126,
            "count" : 34,
            "type" : "VEC2"
        },
        {
            "bufferView" : 25,
            "componentType" : 5123,
            "count" : 48,
            "type" : "SCALAR"
        }
    ],
    "bufferViews" : [
        {
            "buffer" : 0,
            "byteLength" : 28092,
            "byteOffset" : 0
        },
        {
            "buffer" : 0,
            "byteLength" : 28092,
            "byteOffset" : 28092
        },
        {
            "buffer" : 0,
            "byteLength" : 18728,
            "byteOffset" : 56184
        },
        {
            "buffer" : 0,
            "byteLength" : 27240,
            "byteOffset" : 74912
        },
        {
            "buffer" : 0,
            "byteLength" : 28092,
            "byteOffset" : 102152
        },
        {
            "buffer" : 0,
            "byteLength" : 28092,
            "byteOffset" : 130244
        },
        {
            "buffer" : 0,
            "byteLength" : 18728,
            "byteOffset" : 158336
        },
        {
            "buffer" : 0,
            "byteLength" : 177768,
            "byteOffset" : 177064
        },
        {
            "buffer" : 0,
            "byteLength" : 177768,
            "byteOffset" : 354832
        },
        {
            "buffer" : 0,
            "byteLength" : 177792,
            "byteOffset" : 532600
        },
        {
            "buffer" : 0,
            "byteLength" : 49224,
            "byteOffset" : 710392
        },
        {
            "buffer" : 0,
            "byteLength" : 49224,
            "byteOffset" : 759616
        },
        {
            "buffer" : 0,
            "byteLength" : 32816,
            "byteOffset" : 808840
        },
        {
            "buffer" : 0,
            "byteLength" : 13488,
            "byteOffset" : 841656
        },
        {
            "buffer" : 0,
            "byteLength" : 49224,
            "byteOffset" : 855144
        },
        {
            "buffer" : 0,
            "byteLength" : 49224,
            "byteOffset" : 904368
        },
        {
            "buffer" : 0,
            "byteLength" : 32816,
            "byteOffset" : 953592
        },
        {
            "buffer" : 0,
            "byteLength" : 50520,
            "byteOffset" : 986408
        },
        {
            "buffer" : 0,
            "byteLength" : 50520,
            "byteOffset" : 1036928
        },
        {
            "buffer" : 0,
            "byteLength" : 50496,
            "byteOffset" : 1087448
        },
        {
            "buffer" : 0,
            "byteLength" : 50520,
            "byteOffset" : 1137944
        },
        {
            "buffer" : 0,
            "byteLength" : 50520,
            "byteOffset" : 1188464
        },
        {
            "buffer" : 0,
            "byteLength" : 408,
            "byteOffset" : 1238984
        },
        {
            "buffer" : 0,
            "byteLength" : 408,
            "byteOffset" : 1239392
        },
        {
            "buffer" : 0,
            "byteLength" : 272,
            "byteOffset" : 1239800
        },
        {
            "buffer" : 0,
            "byteLength" : 96,
            "byteOffset" : 1240072
        }
    ],
    "buffers" : [
        {
            "byteLength" : 1240168,
            "uri" : "data:application/octet-stream;base64,"
        }
    ]
}
